<svg width="640" height="640" viewBox="0 0 640 640" fill="none" xmlns="http://www.w3.org/2000/svg" role="img" aria-labelledby="title desc">
  <title id="title">阿宝 App 图标</title><desc id="desc">适合 App 和 touch icon 使用的阿宝图标。</desc>
  <rect x="20" y="20" width="600" height="600" rx="142" fill="#102A43"/><rect x="40" y="40" width="560" height="560" rx="124" stroke="#D9A441" stroke-width="14"/>
  <circle cx="210" cy="188" r="74" fill="#071421"/><circle cx="430" cy="188" r="74" fill="#071421"/><circle cx="320" cy="286" r="182" fill="#FFFDF6"/>
  <path d="M176 284c0-66 54-120 120-120h14v204H176V284Z" fill="#101820"/><path d="M340 164h14c66 0 120 54 120 120v84H340V164Z" fill="#101820"/>
  <circle cx="238" cy="280" r="62" fill="#FFFDF6" stroke="#D9A441" stroke-width="18"/><circle cx="402" cy="280" r="62" fill="#FFFDF6" stroke="#D9A441" stroke-width="18"/><path d="M300 280h40" stroke="#D9A441" stroke-width="16" stroke-linecap="round"/>
  <circle cx="246" cy="276" r="31" fill="#101820"/><circle cx="410" cy="276" r="31" fill="#101820"/><circle cx="256" cy="264" r="12" fill="#FFFFFF"/><circle cx="420" cy="264" r="12" fill="#FFFFFF"/>
  <ellipse cx="322" cy="348" rx="34" ry="27" fill="#102A43"/><path d="M276 390c30 32 72 32 102 0" stroke="#102A43" stroke-width="16" stroke-linecap="round"/>
  <path d="M148 535c54-96 150-146 264-122 76 16 136 64 168 122H148Z" fill="#111820"/><path d="M322 412c18 60 16 114-4 168" stroke="#D9A441" stroke-width="16" stroke-linecap="round"/>
  <path d="M182 496c74 46 168 54 288 18" stroke="#D9A441" stroke-width="11" stroke-linecap="round"/><path d="M124 430c38-34 82-48 132-42" stroke="#4F7D45" stroke-width="14" stroke-linecap="round"/>
  <path d="M464 428c36-48 118-36 138 24 16 48-28 94-82 78-38-11-58-42-56-83Z" fill="#7A3F2A"/><path d="M500 400c28-18 70-16 96 2" stroke="#D9A441" stroke-width="13" stroke-linecap="round"/>
</svg>
