<svg width="64" height="64" viewBox="0 0 64 64" fill="none" xmlns="http://www.w3.org/2000/svg">
  <rect width="64" height="64" rx="15" fill="#102A43"/>
  <circle cx="20" cy="18" r="8" fill="#071421"/><circle cx="44" cy="18" r="8" fill="#071421"/>
  <circle cx="32" cy="30" r="20" fill="#FFFDF6"/>
  <path d="M18 29c0-8 6-14 14-14v27H18V29Z" fill="#101820"/><path d="M34 15c8 0 14 6 14 14v13H34V15Z" fill="#101820"/>
  <circle cx="25" cy="29" r="7" fill="#FFFDF6" stroke="#D9A441" stroke-width="3"/><circle cx="41" cy="29" r="7" fill="#FFFDF6" stroke="#D9A441" stroke-width="3"/>
  <path d="M32 29h2" stroke="#D9A441" stroke-width="3" stroke-linecap="round"/>
  <circle cx="26" cy="28" r="3" fill="#101820"/><circle cx="42" cy="28" r="3" fill="#101820"/>
  <circle cx="27" cy="27" r="1" fill="#FFFFFF"/><circle cx="43" cy="27" r="1" fill="#FFFFFF"/>
  <ellipse cx="33" cy="38" rx="3.6" ry="2.8" fill="#102A43"/><path d="M28 45c3 3 8 3 11 0" stroke="#102A43" stroke-width="3" stroke-linecap="round"/>
  <path d="M14 58c11-10 29-12 44 0v6H14v-6Z" fill="#111820"/><path d="M33 55v9" stroke="#D9A441" stroke-width="3" stroke-linecap="round"/>
  <path d="M48 55c6-5 13-1 13 6" stroke="#7A3F2A" stroke-width="4" stroke-linecap="round"/>
</svg>
