<svg width="184" height="48" viewBox="0 0 184 48" fill="none" xmlns="http://www.w3.org/2000/svg" role="img" aria-labelledby="title desc">
  <title id="title">阿宝网站导航栏 Logo</title>
  <desc id="desc">阿宝头像和中文品牌名的导航栏 Logo。</desc>
  <defs><linearGradient id="gold" x1="6" x2="52" y1="3" y2="46"><stop stop-color="#F6D87A"/><stop offset=".68" stop-color="#D9A441"/><stop offset="1" stop-color="#B9892E"/></linearGradient></defs>
  <circle cx="16" cy="15" r="8" fill="#101820"/><circle cx="38" cy="15" r="8" fill="#101820"/>
  <circle cx="27" cy="24" r="20" fill="#FFFDF6" stroke="#102A43" stroke-width="3.8"/>
  <path d="M15 23c0-8 6-14 14-14h2v24H15V23Z" fill="#101820"/><path d="M33 9h2c8 0 14 6 14 14v10H33V9Z" fill="#101820"/>
  <circle cx="21" cy="23" r="6.2" fill="#FFFDF6" stroke="url(#gold)" stroke-width="3"/><circle cx="36" cy="23" r="6.2" fill="#FFFDF6" stroke="url(#gold)" stroke-width="3"/>
  <path d="M27 23h4" stroke="url(#gold)" stroke-width="2.5" stroke-linecap="round"/>
  <circle cx="22" cy="22" r="2.5" fill="#101820"/><circle cx="37" cy="22" r="2.5" fill="#101820"/>
  <circle cx="23" cy="21" r="1" fill="#FFFFFF"/><circle cx="38" cy="21" r="1" fill="#FFFFFF"/>
  <ellipse cx="29" cy="31" rx="3.6" ry="2.8" fill="#102A43"/><path d="M23 36c4 4 10 4 14 0" stroke="#102A43" stroke-width="2.5" stroke-linecap="round"/>
  <path d="M11 43c9-8 22-10 36 0v5H11v-5Z" fill="#111820"/><path d="M29 40v8" stroke="url(#gold)" stroke-width="2.5" stroke-linecap="round"/>
  <path d="M43 40c5-4 12-1 12 5" stroke="#7A3F2A" stroke-width="3" stroke-linecap="round"/><path d="M9 39c5-5 11-8 18-8" stroke="#4F7D45" stroke-width="2.6" stroke-linecap="round"/>
  <text x="64" y="28" fill="#102A43" font-family="Inter, 'Noto Sans SC', sans-serif" font-size="20" font-weight="900">阿宝</text>
  <text x="64" y="43" fill="#4F7D45" font-family="Inter, 'Noto Sans SC', sans-serif" font-size="10" font-weight="800">陪你一起成长</text>
</svg>
