<svg width="184" height="48" viewBox="0 0 184 48" fill="none" xmlns="http://www.w3.org/2000/svg" role="img" aria-labelledby="title desc">
  <title id="title">阿宝 Abao 国潮导航栏 Logo</title>
  <desc id="desc">国潮阿宝头像与品牌字标。</desc>
  <circle cx="15" cy="15" r="8" fill="#102A43"/>
  <circle cx="35" cy="15" r="8" fill="#102A43"/>
  <circle cx="25" cy="23" r="19" fill="#FFFDF6" stroke="#102A43" stroke-width="4"/>
  <path d="M17 22c0-5 4-9 9-9v18h-9v-9Z" fill="#102A43"/>
  <path d="M31 13c5 0 9 4 9 9v9h-9V13Z" fill="#102A43"/>
  <circle cx="19" cy="22" r="5" stroke="#D9A441" stroke-width="2.5"/>
  <circle cx="31" cy="22" r="5" stroke="#D9A441" stroke-width="2.5"/>
  <path d="M24 22h2" stroke="#D9A441" stroke-width="2" stroke-linecap="round"/>
  <circle cx="25" cy="29" r="2" fill="#102A43"/>
  <path d="M20 35c3 3 8 3 11 0" stroke="#102A43" stroke-width="2.5" stroke-linecap="round"/>
  <path d="M13 41h29c4 0 7 3 7 7H6c0-4 3-7 7-7Z" fill="#172126"/>
  <path d="M25 40v8" stroke="#D9A441" stroke-width="2.5" stroke-linecap="round"/>
  <path d="M40 41c5-3 10 0 10 6" stroke="#7A3F2A" stroke-width="2.5" stroke-linecap="round"/>
  <text x="58" y="25" fill="#102A43" font-family="Inter, 'Noto Sans SC', sans-serif" font-size="18" font-weight="800">阿宝</text>
  <text x="58" y="41" fill="#4F7D45" font-family="Inter, 'Noto Sans SC', sans-serif" font-size="11" font-weight="800">Abao Academy</text>
</svg>
