<svg width="184" height="48" viewBox="0 0 184 48" fill="none" xmlns="http://www.w3.org/2000/svg" role="img" aria-labelledby="title desc">
  <title id="title">阿宝 Abao 导航栏 Logo</title>
  <desc id="desc">阿宝品牌导航栏横版 Logo。</desc>
  <circle cx="15" cy="16" r="8" fill="#0B1F5F"/>
  <circle cx="35" cy="16" r="8" fill="#0B1F5F"/>
  <circle cx="25" cy="24" r="19" fill="#FFFFFF" stroke="#0B1F5F" stroke-width="4"/>
  <path d="M17 23C17 19 20 16 24 16H25V32H17V23Z" fill="#0B1F5F"/>
  <path d="M31 16H32C36 16 39 19 39 23V32H31V16Z" fill="#0B1F5F"/>
  <circle cx="19" cy="23" r="5" stroke="#F5B942" stroke-width="2.5"/>
  <circle cx="31" cy="23" r="5" stroke="#F5B942" stroke-width="2.5"/>
  <path d="M24 23H26" stroke="#F5B942" stroke-width="2" stroke-linecap="round"/>
  <circle cx="25" cy="30" r="2" fill="#0B1F5F"/>
  <path d="M20 36C23 38 28 38 31 36" stroke="#0B1F5F" stroke-width="2.5" stroke-linecap="round"/>
  <path d="M16 41H35C39 41 42 44 42 47H10C10 44 13 41 16 41Z" fill="#0B1F5F"/>
  <path d="M38 41C42 40 46 43 45 47" stroke="#7A3F2A" stroke-width="2.5" stroke-linecap="round"/>
  <text x="58" y="25" fill="#0B1F5F" font-family="Inter, 'Noto Sans SC', sans-serif" font-size="18" font-weight="800">阿宝</text>
  <text x="58" y="41" fill="#657085" font-family="Inter, 'Noto Sans SC', sans-serif" font-size="11" font-weight="700">Abao Academy</text>
</svg>
