<svg width="1024" height="1024" viewBox="0 0 1024 1024" fill="none" xmlns="http://www.w3.org/2000/svg" role="img" aria-labelledby="title desc">
  <title id="title">阿宝社交头像 Logo</title><desc id="desc">阿宝圆形头像版，用于社交媒体和开放图。</desc>
  <circle cx="512" cy="512" r="496" fill="#102A43"/><circle cx="512" cy="512" r="470" stroke="#D9A441" stroke-width="20"/>
  <path d="M156 862c114-174 278-256 492-214 142 28 252 116 316 214v158H156V862Z" fill="#111820"/>
  <path d="M506 650c34 104 30 202-8 294" stroke="#D9A441" stroke-width="30" stroke-linecap="round"/><path d="M242 794c152 92 340 106 574 24" stroke="#D9A441" stroke-width="22" stroke-linecap="round"/>
  <path d="M168 702c68-70 152-100 252-86" stroke="#4F7D45" stroke-width="28" stroke-linecap="round"/>
  <path d="M720 700c66-102 236-78 278 48 34 104-64 202-178 164-76-25-116-88-110-168Z" fill="#7A3F2A"/>
  <path d="M784 638c58-34 138-32 190 2" stroke="#D9A441" stroke-width="28" stroke-linecap="round"/><path d="M940 760c80-30 140 40 106 104-30 58-106 66-160 20" stroke="#7A3F2A" stroke-width="36" stroke-linecap="round"/>
  <path d="M892 590c36-54 34-108-4-162" stroke="#E8C56D" stroke-width="18" stroke-linecap="round" opacity=".75"/>
  <circle cx="314" cy="286" r="132" fill="#071421"/><circle cx="700" cy="286" r="132" fill="#071421"/>
  <circle cx="512" cy="430" r="314" fill="#FFFDF6"/>
  <path d="M274 420c0-116 94-210 210-210h28v354H274V420Z" fill="#101820"/><path d="M552 210h28c116 0 210 94 210 210v144H552V210Z" fill="#101820"/>
  <circle cx="392" cy="430" r="108" fill="#FFFDF6" stroke="#D9A441" stroke-width="32"/><circle cx="664" cy="430" r="108" fill="#FFFDF6" stroke="#D9A441" stroke-width="32"/>
  <path d="M500 430h56" stroke="#D9A441" stroke-width="28" stroke-linecap="round"/>
  <circle cx="410" cy="420" r="54" fill="#101820"/><circle cx="682" cy="420" r="54" fill="#101820"/>
  <circle cx="428" cy="400" r="20" fill="#FFFFFF"/><circle cx="700" cy="400" r="20" fill="#FFFFFF"/>
  <path d="M336 320c34-34 78-46 132-36" stroke="#101820" stroke-width="24" stroke-linecap="round"/><path d="M600 284c60-18 112-6 156 34" stroke="#101820" stroke-width="24" stroke-linecap="round"/>
  <ellipse cx="528" cy="548" rx="58" ry="46" fill="#102A43"/><path d="M442 630c56 62 142 62 198 0" stroke="#102A43" stroke-width="30" stroke-linecap="round"/>
</svg>
